<?xml version="1.0" encoding="utf-8"?>
<!-- Generator: Adobe Illustrator 19.1.0, SVG Export Plug-In . SVG Version: 6.00 Build 0)  -->
<svg version="1.1" id="Layer_1" xmlns="http://www.w3.org/2000/svg" xmlns:xlink="http://www.w3.org/1999/xlink" x="0px" y="0px"
	 viewBox="0 0 140 151" style="enable-background:new 0 0 140 151;" xml:space="preserve">
<g>
	<path d="M136.2,44.6c-15.9-3.4-31.2,0.1-45.8,5.7c0.3-4,0.9-9.5,1.1-13.4c0.2-3.2-0.2-6.3-3.2-8.2c-4.4-2.8-10.2-0.1-14.4,1.9
		c-12.8,6-25.4,14-36.5,22.6c-5.4,4.2-10.5,9.4-17,12.1c-2.3,0.9-4.8,1.5-6.9-0.1c-4-3-3.2-8.6-2.1-12.8c2.4-9.7,7.4-19.3,14.3-26.5
		c2.7-2.7,8.3-6.5,11.8-2.8c3.6,3.7-1.7,10-3.9,12.9c-4.1,5.3,5,10.6,9,5.3c5.1-6.7,9.2-15.8,3.9-23.7c-4.5-6.7-13.7-7.8-20.7-4.6
		c-7.9,3.6-13.5,12-17.6,19.3C4.1,39.6,0.6,48.2,0,56.7c-0.5,7.6,3.2,15.7,10.5,18.8c6,2.5,12.4,0.4,17.7-2.6
		c5.4-3.1,10-7.4,15-11.2C50.6,56,58.6,51,66.6,46.5c4-2.3,8-4.8,12.2-6.7c0.4-0.2,1.3-0.5,2.1-0.8c-0.1,2.1-0.2,4.2-0.3,6.3
		c-0.2,3-0.4,5.9-0.7,8.9c-0.6,0.3-1.3,0.6-1.9,1l-0.2,0.1v0C69,60.2,59.9,66.2,52.9,74c-11.2,12.4-18.6,28.3-20.7,44.9
		c-0.9,7.6-1.1,16.9,2.8,23.8c4.3,7.7,13.2,10.5,21.2,6.7c7.1-3.3,12.1-10.9,15.8-17.5c4-7.2,6.8-15.1,9.2-22.9
		c4.6-15.5,7.1-31.5,8.6-47.5c14-5.8,29-9.9,43.7-6.8C140,56.1,142.8,46,136.2,44.6z M72.1,102.5c-2,7.5-4.4,14.9-7.9,21.9
		c-2.6,5.2-8.5,17-15.7,16.3c-7.5-0.7-6.4-14.2-6-19.2c0.7-8.3,3.3-16.5,7-23.9c6.7-13.3,16.7-22.7,28.7-30.2l0.4-0.2
		C77.2,79,75.2,90.8,72.1,102.5z"/>
	<path d="M84.3,0.3c-3.6,0.9-6.4,4.2-7,7.8c-1.1,6.4,4.5,12.8,11.2,11.5C100.1,17.4,95.6-2.6,84.3,0.3z"/>
</g>
</svg>
